<svg width="48" height="48" viewBox="0 0 48 48" fill="none" xmlns="http://www.w3.org/2000/svg">
<g id="Frame 4252">
<g id="Subtract">
<path d="M47.9179 25.9997C47.9079 26.1201 47.8971 26.2403 47.8854 26.3603L37.0046 25.3372C36.9493 25.4137 36.8936 25.4899 36.8374 25.5657L33.0134 25.1142C33.0387 24.9073 33.0571 24.6981 33.0682 24.4871L37.4394 24.7095C37.3474 24.8487 37.2531 24.9866 37.157 25.1234L47.9179 25.9997Z" fill="url(#paint0_radial_243_3320)"/>
<path d="M33.0764 23.7067C33.0795 23.8041 33.0811 23.9019 33.0811 24C33.0811 24.0948 33.0796 24.1892 33.0767 24.2833L37.6314 24.4138C37.6792 24.3373 37.7267 24.2608 37.7736 24.1841L47.9987 24.2494C47.9996 24.1664 48 24.0833 48 24C48 23.9626 47.9999 23.9253 47.9997 23.8879L37.9149 23.9492C37.9961 23.8116 38.0749 23.6727 38.1503 23.5316L33.0764 23.7067Z" fill="url(#paint1_radial_243_3320)"/>
<path d="M33.0199 22.9406C33.0397 23.1109 33.0548 23.2827 33.065 23.4557L38.3579 23.132C38.3957 23.0577 38.4329 22.983 38.4694 22.9081L47.9288 22.1377C47.9196 22.0172 47.9094 21.8969 47.8984 21.7769L38.5915 22.6521C38.6516 22.5235 38.7102 22.3944 38.7678 22.2654L33.0199 22.9406Z" fill="url(#paint2_radial_243_3320)"/>
<path d="M32.8899 22.1376C32.9257 22.3092 32.9566 22.4826 32.9826 22.6577L38.8405 21.7828L38.9806 21.7621C39.0148 21.6751 39.0483 21.588 39.0809 21.5008L47.6741 20.0357C47.6545 19.9175 47.634 19.7997 47.6126 19.6822L39.1806 21.2268C39.2301 21.0866 39.2776 20.9453 39.3231 20.8021L32.8899 22.1376Z" fill="url(#paint3_radial_243_3320)"/>
<path d="M32.6987 21.3844C32.7454 21.5397 32.788 21.6968 32.8264 21.8555L39.4943 20.2468C39.5191 20.1579 39.543 20.0694 39.5663 19.981L47.2361 17.9698C47.2058 17.8525 47.1746 17.7356 47.1425 17.6191L39.6411 19.6871C39.6728 19.5582 39.7033 19.4285 39.733 19.2972L32.6987 21.3844Z" fill="url(#paint4_radial_243_3320)"/>
<path d="M32.4353 20.6301C32.4945 20.7783 32.55 20.9284 32.6015 21.0802L39.8628 18.6539C39.88 18.5533 39.8964 18.4527 39.9119 18.3519L46.6174 15.9523C46.5767 15.8378 46.5351 15.7237 46.4927 15.6101L39.9571 18.0425C39.9751 17.9131 39.992 17.7831 40.0081 17.6524L32.4353 20.6301Z" fill="url(#paint5_radial_243_3320)"/>
<path d="M32.1024 19.8949C32.1729 20.0337 32.24 20.1746 32.3034 20.3175L40.0755 16.9206C40.083 16.8235 40.0891 16.7265 40.0943 16.6293L45.8201 13.9919C45.7702 13.8832 45.7195 13.775 45.668 13.6672L40.1076 16.3117C40.112 16.1762 40.1149 16.0403 40.117 15.9035L32.1024 19.8949Z" fill="url(#paint6_radial_243_3320)"/>
<path d="M21.9311 15.1556C22.1322 15.1088 22.3358 15.0686 22.5417 15.0354L22.2091 12.8263L22.172 12.8129L22.1314 12.7983L20.017 0.329C19.8461 0.357538 19.6758 0.387883 19.5062 0.420015L21.7379 12.6644C21.6095 12.6228 21.4812 12.5834 21.3529 12.5461L21.9311 15.1556Z" fill="url(#paint7_radial_243_3320)"/>
<path d="M21.1885 15.3625C21.3899 15.297 21.5944 15.2384 21.8016 15.1868L21.1609 12.4891L21.1394 12.483C21.1008 12.4721 21.0622 12.4613 21.0234 12.4506L17.9772 0.761987C17.8101 0.805173 17.6437 0.850118 17.478 0.896799L20.6103 12.3417C20.4793 12.3091 20.3479 12.2784 20.2165 12.2504L21.1885 15.3625Z" fill="url(#paint8_radial_243_3320)"/>
<path d="M20.4512 15.6385C20.6461 15.5557 20.8445 15.4795 21.0461 15.4101L19.983 12.2088L19.9587 12.2036C19.9433 12.2002 19.9278 12.1969 19.9124 12.1937L19.8841 12.1877L19.8665 12.1841L19.8305 12.1767L15.986 1.3706C15.822 1.42869 15.6587 1.48853 15.4963 1.55007L19.3978 12.0971C19.2554 12.0735 19.1128 12.052 18.9711 12.0324L20.4512 15.6385Z" fill="url(#paint9_radial_243_3320)"/>
<path d="M19.7475 15.9741C19.927 15.8788 20.1101 15.7893 20.2966 15.7059L18.6908 11.9909C18.6104 11.9813 18.5299 11.9722 18.4495 11.9637L13.9786 2.18601C13.8708 2.2356 13.7635 2.28596 13.6567 2.33708L18.19 11.9382C18.0092 11.9218 17.8285 11.9082 17.6478 11.8975L19.7475 15.9741Z" fill="url(#paint10_radial_243_3320)"/>
<path d="M19.0847 16.3629C19.2432 16.2607 19.405 16.1633 19.5701 16.0709L17.295 11.8871C17.2245 11.8849 17.1538 11.883 17.083 11.8814L12.1256 3.13864C12.0212 3.19818 11.9173 3.25848 11.8139 3.31953L16.8094 11.8769C16.631 11.8753 16.4519 11.8765 16.2727 11.8819L19.0847 16.3629Z" fill="url(#paint11_radial_243_3320)"/>
<path d="M18.4758 16.7919C18.6098 16.689 18.7468 16.5897 18.8867 16.4943L15.8264 11.8974C15.7623 11.9016 15.6984 11.9059 15.6347 11.9105L10.3586 4.25118C10.2618 4.31817 10.1655 4.38585 10.0697 4.45422L15.3558 11.9323C15.194 11.9461 15.0328 11.9619 14.8716 11.9804L18.4758 16.7919Z" fill="url(#paint12_radial_243_3320)"/>
<path d="M17.8652 17.3044C17.9906 17.1895 18.1192 17.078 18.2509 16.9701L14.4098 12.1621L14.3216 12.0531C14.2559 12.0623 14.19 12.0722 14.124 12.0826L8.69802 5.51002C8.60705 5.58538 8.51665 5.66141 8.42682 5.73808L13.8372 12.1312C13.6644 12.1625 13.4915 12.1972 13.3201 12.2347L17.8652 17.3044Z" fill="url(#paint13_radial_243_3320)"/>
<path d="M17.3325 17.8347C17.439 17.7196 17.5485 17.6072 17.6608 17.4977L12.7596 12.3646C12.6958 12.3803 12.6323 12.3966 12.5689 12.4134L7.15193 6.90783C7.0671 6.99145 6.9829 7.0757 6.89931 7.16057L12.279 12.4943C12.1257 12.539 11.973 12.5861 11.8204 12.6344L17.3325 17.8347Z" fill="url(#paint14_radial_243_3320)"/>
<path d="M16.8291 18.4277C16.925 18.3044 17.024 18.1836 17.1261 18.0656L11.1976 12.8471C11.1291 12.8718 11.0608 12.8973 10.9926 12.9234L5.73053 8.43568C5.65307 8.52651 5.57628 8.61792 5.50017 8.70991L10.7045 13.0375C10.5554 13.0984 10.4069 13.1615 10.2584 13.2259L16.8291 18.4277Z" fill="url(#paint15_radial_243_3320)"/>
<path d="M16.3704 19.073C16.4532 18.9452 16.539 18.8195 16.6279 18.6962L9.58386 13.5321C9.5281 13.56 9.47234 13.5881 9.41661 13.6164L4.44785 10.0787C4.37819 10.1763 4.30924 10.2745 4.24102 10.3733L9.13191 13.7637C8.98245 13.8426 8.83365 13.9241 8.68613 14.0095L16.3704 19.073Z" fill="url(#paint16_radial_243_3320)"/>
<path d="M17.2057 30.0254C17.0689 29.8713 16.9373 29.7125 16.8112 29.5493L15.0117 30.9781L15.0183 31.0155C15.0243 31.0488 15.0303 31.0822 15.0365 31.1155L5.38239 39.1466C5.49124 39.2803 5.6015 39.4127 5.71316 39.5439L15.1181 31.5231C15.1422 31.6361 15.1674 31.7485 15.1933 31.8603L17.2057 30.0254Z" fill="url(#paint17_radial_243_3320)"/>
<path d="M17.7404 30.579C17.5874 30.4334 17.4394 30.2825 17.2969 30.1266L15.2401 32.0574C15.2562 32.1231 15.2728 32.1886 15.2899 32.2539L6.767 40.704C6.88752 40.8283 7.00937 40.9513 7.13253 41.073L15.404 32.6661C15.4363 32.7765 15.4699 32.8866 15.5047 32.9967L17.7404 30.579Z" fill="url(#paint18_radial_243_3320)"/>
<path d="M18.3285 31.0927C18.1638 30.9608 18.0037 30.8232 17.8486 30.6803L15.5773 33.2146C15.6013 33.2865 15.6255 33.3582 15.6501 33.4296L8.27961 42.1352C8.41058 42.2489 8.54279 42.3611 8.67622 42.4719L15.7986 33.8437C15.8408 33.9564 15.8845 34.0684 15.9302 34.1798L18.3285 31.0927Z" fill="url(#paint19_radial_243_3320)"/>
<path d="M18.9588 31.5544C18.7895 31.4413 18.6243 31.3225 18.4633 31.1985L16.0392 34.4445C16.0676 34.5123 16.0965 34.5799 16.1259 34.6473L9.91309 43.433C10.052 43.5338 10.192 43.6332 10.3331 43.7312L16.3111 35.0562C16.3644 35.1695 16.4191 35.2822 16.4751 35.3941L18.9588 31.5544Z" fill="url(#paint20_radial_243_3320)"/>
<path d="M19.6153 31.9543C19.4505 31.8633 19.2889 31.7673 19.1305 31.6665L16.6411 35.7106C16.67 35.7664 16.6994 35.8221 16.7293 35.8775L11.6481 44.5816C11.7972 44.6713 11.9474 44.7594 12.0986 44.846L16.9555 36.2805C17.0175 36.387 17.0807 36.4928 17.1445 36.598L19.6153 31.9543Z" fill="url(#paint21_radial_243_3320)"/>
<path d="M20.2873 32.2899C20.1333 32.2209 19.9817 32.1476 19.8324 32.0704L17.3831 36.982C17.4134 37.0288 17.444 37.0754 17.4749 37.1219L13.482 45.5785C13.6369 45.6542 13.7927 45.7282 13.9495 45.8006L17.7412 37.5083C17.8023 37.5942 17.8646 37.6799 17.928 37.7656L20.2873 32.2899Z" fill="url(#paint22_radial_243_3320)"/>
<path d="M21.0308 32.5846C20.8682 32.5283 20.7078 32.4676 20.5496 32.4026L18.3172 38.0718L18.2653 38.2015C18.3014 38.2464 18.3376 38.2911 18.374 38.3356L15.3887 46.4088C15.5507 46.4711 15.7136 46.5317 15.8773 46.5906L18.6821 38.704C18.7617 38.7966 18.8423 38.8886 18.9243 38.9799L21.0308 32.5846Z" fill="url(#paint23_radial_243_3320)"/>
<path d="M21.7643 32.8038C21.6093 32.7646 21.456 32.7214 21.3043 32.6743L21.2163 32.9961L19.3239 39.4053C19.3599 39.443 19.3963 39.4804 19.433 39.5175L17.3673 47.0717C17.5327 47.1192 17.6989 47.1649 17.8657 47.2089L19.7802 39.8558C19.8612 39.9325 19.9428 40.0088 20.0244 40.085L21.7643 32.8038Z" fill="url(#paint24_radial_243_3320)"/>
<path d="M22.5292 32.9626C22.3729 32.9371 22.2178 32.9077 22.0642 32.8743L20.5122 40.5158C20.5585 40.5555 20.6051 40.5948 20.652 40.6338L19.3904 47.5578C19.5614 47.591 19.7331 47.6225 19.9054 47.6521L21.0404 40.9439C21.1279 41.0112 21.2165 41.0777 21.3062 41.1437L22.5292 32.9626Z" fill="url(#paint25_radial_243_3320)"/>
<path d="M23.3244 33.0563C23.1628 33.0444 23.0024 33.0283 22.8432 33.0081L22.7322 34.1965L21.9082 41.5693C21.9506 41.5983 21.9931 41.6271 22.0357 41.6557L21.4557 47.8667C21.6266 47.8847 21.798 47.901 21.9699 47.9154L22.4558 41.9263C22.5592 41.9903 22.6637 42.0529 22.7696 42.1142L23.3244 33.0563Z" fill="url(#paint26_radial_243_3320)"/>
<path d="M32.6321 26.8279C32.5666 27.0281 32.4943 27.2252 32.4155 27.4189L34.3518 28.1863C34.3991 28.1465 34.4462 28.1066 34.493 28.0663L46.4456 32.515C46.4881 32.4031 46.5298 32.2907 46.5706 32.1781L34.6674 27.9142C34.7868 27.8084 34.9048 27.7005 35.0212 27.5895L32.6321 26.8279Z" fill="url(#paint27_radial_243_3320)"/>
<path d="M32.8446 26.0679C32.7951 26.2802 32.7382 26.4897 32.6742 26.6961L35.1665 27.4494C35.2273 27.39 35.2877 27.3302 35.3477 27.2701L47.1061 30.5117C47.1388 30.3953 47.1707 30.2786 47.2017 30.1616L35.5174 27.0978C35.6292 26.9827 35.739 26.8664 35.8463 26.7489L32.8446 26.0679Z" fill="url(#paint28_radial_243_3320)"/>
<path d="M32.9911 25.2835C32.9605 25.4994 32.9224 25.7128 32.877 25.9235L36.002 26.5777C36.0659 26.5064 36.129 26.4344 36.1915 26.3617L47.5884 28.4494C47.6104 28.332 47.6315 28.2143 47.6518 28.0963L36.3533 26.1699C36.4574 26.0444 36.5598 25.9173 36.661 25.7889L32.9911 25.2835Z" fill="url(#paint29_radial_243_3320)"/>
<path d="M32.3617 27.5484C31.8214 28.82 30.9994 29.9431 29.9742 30.8394C30.0874 30.7935 30.2 30.7463 30.312 30.6979L39.0311 39.5558L40.6307 41.206L40.6452 41.1956L40.6928 41.2439C40.7781 41.1613 40.8628 41.0781 40.9468 40.9943L40.9333 40.9809C40.9742 40.9493 41.0149 40.9174 41.0555 40.8852C41.1022 40.838 41.1487 40.7907 41.1949 40.7432L30.6791 30.5337C30.8271 30.4653 30.9738 30.3947 31.1193 30.3221L42.1371 39.7183C42.2872 39.5452 42.4349 39.3699 42.5801 39.1926L31.4788 30.1369C31.6613 30.0401 31.8417 29.9398 32.0199 29.8363L33.2514 30.7128L43.4398 38.0775C43.5569 37.9161 43.6721 37.7531 43.7852 37.5887L32.2659 29.6906C32.4575 29.5747 32.6466 29.4551 32.8329 29.3317L44.5543 36.3972C44.6393 36.2566 44.7229 36.1151 44.8051 35.9726L33.0477 29.187C33.2479 29.0498 33.445 28.9083 33.6387 28.7625L45.6106 34.4521C45.6627 34.3446 45.714 34.2367 45.7645 34.1283L33.8146 28.6282C33.9487 28.5245 34.081 28.4187 34.2117 28.3109L32.3617 27.5484Z" fill="url(#paint30_radial_243_3320)"/>
<path d="M29.8993 30.9042L39.4631 41.9844C39.3691 42.0418 39.2741 42.0981 39.1785 42.1534L39.3967 42.4111C39.3056 42.4874 39.2139 42.563 39.1217 42.6379L38.8668 42.3293L38.8145 42.3581L34.7737 37.3733L29.6202 31.1334C29.7148 31.0588 29.8078 30.9824 29.8993 30.9042Z" fill="url(#paint31_radial_243_3320)"/>
<path d="M29.2574 31.4053L37.5743 42.9704C37.4846 43.01 37.395 43.0488 37.305 43.0867L37.7296 43.6875C37.6319 43.7558 37.5336 43.8234 37.4348 43.8903L36.9743 43.2215L36.9368 43.2362L36.8997 43.2506L32.6401 36.926L28.973 31.5996C29.0691 31.5366 29.1639 31.4718 29.2574 31.4053Z" fill="url(#paint32_radial_243_3320)"/>
<path d="M28.5818 31.8422L35.6128 43.6864C35.5245 43.7116 35.4361 43.7369 35.3477 43.7614L35.9606 44.812C35.8568 44.8717 35.7525 44.9308 35.6478 44.989L35.0033 43.8521C34.9885 43.8557 34.9737 43.8593 34.959 43.8628L32.5154 39.4633L28.2884 32.0067C28.3873 31.9536 28.4852 31.8988 28.5818 31.8422Z" fill="url(#paint33_radial_243_3320)"/>
<path d="M27.8872 32.2094L33.6513 44.138C33.551 44.155 33.4508 44.1712 33.3505 44.1862L34.1019 45.7768C33.9926 45.8275 33.883 45.8775 33.7729 45.9266L32.9987 44.233C32.9785 44.2353 32.9583 44.2376 32.9381 44.2398L32.9196 44.2418L29.9976 37.6672L27.5685 32.3531C27.6758 32.3072 27.7821 32.2593 27.8872 32.2094Z" fill="url(#paint34_radial_243_3320)"/>
<path d="M27.1701 32.5124L31.6846 44.3402C31.5699 44.3445 31.4561 44.348 31.3424 44.3505L32.1651 46.5753C32.0537 46.6156 31.9419 46.6551 31.8298 46.6938L30.9973 44.3554C30.9532 44.3557 30.909 44.3558 30.8647 44.3558L27.5935 34.7935L26.8245 32.6333C26.9407 32.5952 27.056 32.5549 27.1701 32.5124Z" fill="url(#paint35_radial_243_3320)"/>
<path d="M26.3911 32.763L29.6764 44.304C29.5738 44.2947 29.471 44.2853 29.3684 44.2755L30.169 47.1997C30.0545 47.2301 29.9397 47.2596 29.8245 47.2884L29.03 44.2409L28.9914 44.2365L27.9481 40.0906L26.0595 32.8465C26.1709 32.8207 26.2814 32.7929 26.3911 32.763Z" fill="url(#paint36_radial_243_3320)"/>
<path d="M25.6715 32.9276L27.8913 44.0549C27.7477 44.0267 27.6026 43.9971 27.4576 43.965L28.1284 47.6463C28.0112 47.6666 27.8938 47.686 27.7761 47.7046L27.1291 43.8878L27.0921 43.8785L26.3877 39.5147L25.2819 32.9913C25.4127 32.9728 25.5425 32.9516 25.6715 32.9276Z" fill="url(#paint37_radial_243_3320)"/>
<path d="M24.9106 33.036L26.1114 43.6034C25.9827 43.562 25.854 43.5197 25.7258 43.4758L26.1409 47.9058C25.968 47.9211 25.7945 47.9346 25.6206 47.9462L24.4139 33.0718C24.5807 33.0643 24.7463 33.0524 24.9106 33.036Z" fill="url(#paint38_radial_243_3320)"/>
<path d="M24.1225 33.0803C24.0817 33.0808 24.0409 33.0811 24 33.0811C23.8758 33.0811 23.7522 33.0786 23.6292 33.0736L23.6016 37.4085L23.4961 42.5188L23.5254 42.534L23.5688 42.5563L23.5342 47.9956C23.6891 47.9985 23.8444 48 24 48L24.0548 47.9999L24.0232 42.7823C24.1424 42.8395 24.2625 42.8953 24.3834 42.9495L24.1225 33.0803Z" fill="url(#paint39_radial_243_3320)"/>
<path d="M16.7305 29.4433C15.8216 28.2315 15.2087 26.785 14.999 25.211C14.9857 25.2847 14.9729 25.3584 14.9607 25.4322L10.7892 26.1434L0.487189 27.8024C0.48651 27.8349 0.485923 27.8675 0.485423 27.9002L0.319953 27.9284C0.33953 28.0473 0.359977 28.1659 0.381293 28.2842L0.483501 28.2655C0.483958 28.3623 0.48519 28.4589 0.487189 28.5548L14.9087 25.7668C14.884 25.9377 14.862 26.1088 14.8429 26.28L8.74698 27.8784L0.733924 29.9131C0.793475 30.1481 0.856494 30.3818 0.922927 30.614L14.8071 26.6345C14.7912 26.8118 14.7782 26.9892 14.7682 27.1666L7.51187 29.7668L1.34123 31.9305C1.41556 32.1429 1.4928 32.354 1.57289 32.5636L14.7521 27.5212C14.7448 27.7316 14.7416 27.942 14.7425 28.1521L2.10818 33.8505C2.18944 34.0308 2.27286 34.2099 2.35841 34.3878L14.7461 28.4279C14.7508 28.6483 14.7599 28.8685 14.7735 29.0882L3.00145 35.6306C3.0797 35.7716 3.15932 35.9117 3.24031 36.0509L14.791 29.3389C14.8092 29.573 14.8323 29.8065 14.8605 30.0393L4.13605 37.4736C4.23334 37.6167 4.33215 37.7588 4.43245 37.8997L14.914 30.4398C14.9315 30.559 14.9502 30.6779 14.9702 30.7966L16.7305 29.4433Z" fill="url(#paint40_radial_243_3320)"/>
<path d="M14.9678 24.9481L0.575377 26.4272C0.584682 26.3397 0.594661 26.2529 0.6053 26.1663L0.100749 26.2138C0.0898848 26.095 0.0798864 25.9759 0.0707617 25.8566L0.652934 25.8092C0.658103 25.7731 0.66339 25.737 0.668788 25.7007L11.4844 24.9271L14.9415 24.6456C14.9486 24.7469 14.9574 24.8477 14.9678 24.9481Z" fill="url(#paint41_radial_243_3320)"/>
<path d="M14.9204 24.1628L0.928267 24.3619C0.947192 24.2824 0.966807 24.2022 0.987105 24.1219L0.000349909 24.1282C0.000128654 24.0855 1.03969e-05 24.0428 1.0395e-05 24C1.03917e-05 23.9234 0.00036897 23.8468 0.00108613 23.7703L1.07861 23.7769C1.08551 23.7521 1.09248 23.7274 1.09951 23.7028L10.0136 23.8311L14.92 23.8609C14.9193 23.9072 14.9189 23.9536 14.9189 24C14.9189 24.0544 14.9194 24.1086 14.9204 24.1628Z" fill="url(#paint42_radial_243_3320)"/>
<path d="M14.9387 23.3955L1.51467 22.4366C1.5494 22.3447 1.58412 22.2536 1.61949 22.163L0.0791348 22.037C0.0886562 21.9194 0.0990246 21.8021 0.110232 21.685L1.75022 21.8392C1.75936 21.8174 1.76859 21.7957 1.7779 21.7739L1.78969 21.7465L11.9035 22.7939L14.9648 23.0817C14.9543 23.1858 14.9456 23.2904 14.9387 23.3955Z" fill="url(#paint43_radial_243_3320)"/>
<path d="M15.0201 22.6396L2.31379 20.6361C2.36636 20.5332 2.42079 20.4311 2.47629 20.33L0.337794 19.9647C0.35763 19.8475 0.378325 19.7306 0.399855 19.614L2.64688 20.0265C2.66728 19.9909 2.68772 19.9554 2.70816 19.92L13.8246 22.0783L15.0763 22.3081C15.0556 22.4179 15.0368 22.5284 15.0201 22.6396Z" fill="url(#paint44_radial_243_3320)"/>
<path d="M15.1736 21.8556L3.34643 18.9133C3.40782 18.8249 3.47037 18.7353 3.53408 18.6462L0.776286 17.9222C0.806159 17.8077 0.836859 17.6936 0.868373 17.5798L3.73744 18.3707L3.75119 18.3528L7.20552 19.3268L15.2545 21.5457C15.2257 21.6483 15.1988 21.7516 15.1736 21.8556Z" fill="url(#paint45_radial_243_3320)"/>
<path d="M15.3729 21.157L4.45169 17.4863C4.55285 17.3673 4.65742 17.2517 4.76345 17.1375L1.39088 15.929C1.43115 15.8162 1.47224 15.7038 1.51414 15.5918L4.99705 16.8893L5.00174 16.8843L6.19859 17.3369L15.4983 20.8013C15.4541 20.9187 15.4123 21.0373 15.3729 21.157Z" fill="url(#paint46_radial_243_3320)"/>
<path d="M15.6382 20.452L5.72823 16.1682C5.85819 16.0473 5.99168 15.9282 6.12767 15.8118L2.17933 13.9931C2.2288 13.8854 2.27904 13.7782 2.33005 13.6714L6.38307 15.599C6.39656 15.588 6.41006 15.5771 6.42358 15.5663L12.5754 18.544L15.806 20.0805C15.7474 20.2029 15.6914 20.3267 15.6382 20.452Z" fill="url(#paint47_radial_243_3320)"/>
<path d="M15.9722 19.7511C16.0383 19.6264 16.1073 19.5035 16.179 19.3823L7.97515 14.4402L7.92638 14.4716C7.90803 14.4835 7.88968 14.4954 7.87134 14.5073L3.31168 11.8273C3.25115 11.9299 3.19136 12.033 3.13232 12.1367L7.59924 14.688C7.45102 14.7884 7.30421 14.8912 7.16045 14.9955L15.9722 19.7511Z" fill="url(#paint48_radial_243_3320)"/>
<path d="M22.6704 15.0156C23.1044 14.9519 23.5484 14.9189 24 14.9189C24.9764 14.9189 25.9167 15.073 26.7981 15.3582C26.6665 15.2546 26.5334 15.1532 26.399 15.054L27.1709 12.2302L30.4029 0.885995C30.364 0.868832 30.325 0.85183 30.2859 0.834985L30.2868 0.831826C30.0934 0.779488 29.8991 0.729504 29.7039 0.681912L26.127 14.8577C25.9757 14.7508 25.8227 14.6467 25.6682 14.5453L26.4147 10.4494L28.3389 0.391206C28.1174 0.350751 27.8948 0.313344 27.6711 0.279015L25.3848 14.3636C25.2069 14.2521 25.0269 14.1442 24.8452 14.0399L26.2769 0.106606C26.0796 0.0880365 25.8816 0.0718584 25.683 0.058095L24.6066 13.9057C24.4113 13.798 24.214 13.6945 24.0148 13.5951L24.2756 0.00155362C24.1839 0.00051984 24.092 4.85975e-06 24 4.86377e-06C23.9288 4.86688e-06 23.8577 0.000317675 23.7867 0.000935659L23.7867 13.4835C23.5772 13.383 23.3658 13.2872 23.1526 13.1959L22.0878 0.0750667C21.9159 0.0886166 21.7445 0.103978 21.5736 0.121133L22.7802 13.042C22.6476 12.9891 22.5143 12.9379 22.3804 12.8886L22.6704 15.0156Z" fill="url(#paint49_radial_243_3320)"/>
<path d="M26.8271 15.3676L31.6586 1.50354C31.7225 1.53854 31.7864 1.57399 31.8502 1.60989L31.9441 1.34597C32.0582 1.38596 32.1718 1.4268 32.2851 1.46846L32.1654 1.79189C32.2129 1.82006 32.2602 1.84848 32.3073 1.87716L27.4452 14.5526L27.1078 15.4646C27.015 15.4308 26.9214 15.3985 26.8271 15.3676Z" fill="url(#paint50_radial_243_3320)"/>
<path d="M27.5856 15.6542L33.4541 2.6504L33.4769 2.66721C33.4994 2.68382 33.5218 2.70044 33.5442 2.71708L33.5717 2.73753L33.5986 2.75767L33.8878 2.12502C33.9983 2.17507 34.1084 2.22593 34.2181 2.2776L33.887 2.97835C33.9365 3.01722 33.9859 3.05661 34.0353 3.09667L27.8506 15.7534L27.8428 15.7697C27.7578 15.7299 27.672 15.6914 27.5856 15.6542Z" fill="url(#paint51_radial_243_3320)"/>
<path d="M28.3111 16.0055L35.0627 3.98915C35.1013 4.02533 35.1397 4.06179 35.1777 4.09847L35.7589 3.07317C35.8634 3.13201 35.9674 3.19162 36.0709 3.25198L35.4308 4.34923C35.4693 4.38829 35.5075 4.42742 35.5453 4.46656L29.118 15.17L28.5519 16.1404C28.4724 16.0942 28.3921 16.0492 28.3111 16.0055Z" fill="url(#paint52_radial_243_3320)"/>
<path d="M28.9872 16.4097L36.4327 5.46294L36.4938 5.53828C36.5145 5.56388 36.5352 5.5895 36.5558 5.61513L37.542 4.18273C37.6405 4.25016 37.7384 4.31831 37.8359 4.38716L36.7734 5.89042C36.8127 5.94136 36.8514 5.99257 36.8894 6.04413L29.2277 16.5736C29.1484 16.5177 29.0683 16.4631 28.9872 16.4097Z" fill="url(#paint53_radial_243_3320)"/>
<path d="M29.6199 16.8663L37.5898 7.06627C37.6317 7.13202 37.6731 7.19862 37.7141 7.26584L39.2192 5.44172C39.3121 5.51799 39.4044 5.59495 39.4961 5.67258L37.8929 7.56703C37.9324 7.63519 37.9715 7.7036 38.0102 7.772L29.8829 17.0819C29.7966 17.0084 29.7089 16.9366 29.6199 16.8663Z" fill="url(#paint54_radial_243_3320)"/>
<path d="M30.2387 17.4011L38.5602 8.82028C38.5911 8.88528 38.6215 8.95028 38.6513 9.01543L40.786 6.84682C40.8717 6.93074 40.9568 7.01529 41.0413 7.10048L38.791 9.33062C38.8076 9.36965 38.8241 9.40882 38.8405 9.44817L30.5727 17.475L30.4446 17.6021C30.377 17.534 30.3084 17.467 30.2387 17.4011Z" fill="url(#paint55_radial_243_3320)"/>
<path d="M30.7575 17.9334L39.2401 10.4912C39.2788 10.605 39.3165 10.7189 39.3527 10.8327L42.2254 8.38408C42.3028 8.47442 42.3796 8.56532 42.4558 8.65681L39.4513 11.1552C39.4577 11.1772 39.464 11.1991 39.4703 11.2211C39.4749 11.2373 39.4794 11.2534 39.484 11.2696L31.5287 17.7431L30.9843 18.1957C30.9104 18.1068 30.8347 18.0194 30.7575 17.9334Z" fill="url(#paint56_radial_243_3320)"/>
<path d="M31.2515 18.5327L39.7382 12.2607C39.7695 12.3976 39.7985 12.5356 39.8252 12.6748L43.525 10.0406C43.5948 10.1382 43.664 10.2362 43.7324 10.3349L39.884 13.0036C39.8928 13.0568 39.9013 13.1101 39.9095 13.1636L31.4824 18.8527C31.4077 18.7443 31.3307 18.6376 31.2515 18.5327Z" fill="url(#paint57_radial_243_3320)"/>
<path d="M31.7037 19.1895C31.7803 19.3118 31.854 19.4361 31.9247 19.5622L40.1014 15.068C40.0978 14.9916 40.0937 14.9155 40.0891 14.8396L44.856 12.1162C44.7963 12.0117 44.7359 11.9077 44.6748 11.8043L40.0664 14.5137C40.0551 14.3695 40.0424 14.2258 40.0288 14.0821L31.7037 19.1895Z" fill="url(#paint58_radial_243_3320)"/>
</g>
</g>
<defs>
<radialGradient id="paint0_radial_243_3320" cx="0" cy="0" r="1" gradientUnits="userSpaceOnUse" gradientTransform="translate(16.8 14.2) rotate(95.6062) scale(32.7567 91.3935)">
<stop offset="0.114292" stop-color="#13F7FF"/>
<stop offset="0.654288" stop-color="#0CABB1"/>
</radialGradient>
<radialGradient id="paint1_radial_243_3320" cx="0" cy="0" r="1" gradientUnits="userSpaceOnUse" gradientTransform="translate(16.8 14.2) rotate(95.6062) scale(32.7567 91.3935)">
<stop offset="0.114292" stop-color="#13F7FF"/>
<stop offset="0.654288" stop-color="#0CABB1"/>
</radialGradient>
<radialGradient id="paint2_radial_243_3320" cx="0" cy="0" r="1" gradientUnits="userSpaceOnUse" gradientTransform="translate(16.8 14.2) rotate(95.6062) scale(32.7567 91.3935)">
<stop offset="0.114292" stop-color="#13F7FF"/>
<stop offset="0.654288" stop-color="#0CABB1"/>
</radialGradient>
<radialGradient id="paint3_radial_243_3320" cx="0" cy="0" r="1" gradientUnits="userSpaceOnUse" gradientTransform="translate(16.8 14.2) rotate(95.6062) scale(32.7567 91.3935)">
<stop offset="0.114292" stop-color="#13F7FF"/>
<stop offset="0.654288" stop-color="#0CABB1"/>
</radialGradient>
<radialGradient id="paint4_radial_243_3320" cx="0" cy="0" r="1" gradientUnits="userSpaceOnUse" gradientTransform="translate(16.8 14.2) rotate(95.6062) scale(32.7567 91.3935)">
<stop offset="0.114292" stop-color="#13F7FF"/>
<stop offset="0.654288" stop-color="#0CABB1"/>
</radialGradient>
<radialGradient id="paint5_radial_243_3320" cx="0" cy="0" r="1" gradientUnits="userSpaceOnUse" gradientTransform="translate(16.8 14.2) rotate(95.6062) scale(32.7567 91.3935)">
<stop offset="0.114292" stop-color="#13F7FF"/>
<stop offset="0.654288" stop-color="#0CABB1"/>
</radialGradient>
<radialGradient id="paint6_radial_243_3320" cx="0" cy="0" r="1" gradientUnits="userSpaceOnUse" gradientTransform="translate(16.8 14.2) rotate(95.6062) scale(32.7567 91.3935)">
<stop offset="0.114292" stop-color="#13F7FF"/>
<stop offset="0.654288" stop-color="#0CABB1"/>
</radialGradient>
<radialGradient id="paint7_radial_243_3320" cx="0" cy="0" r="1" gradientUnits="userSpaceOnUse" gradientTransform="translate(16.8 14.2) rotate(95.6062) scale(32.7567 91.3935)">
<stop offset="0.114292" stop-color="#13F7FF"/>
<stop offset="0.654288" stop-color="#0CABB1"/>
</radialGradient>
<radialGradient id="paint8_radial_243_3320" cx="0" cy="0" r="1" gradientUnits="userSpaceOnUse" gradientTransform="translate(16.8 14.2) rotate(95.6062) scale(32.7567 91.3935)">
<stop offset="0.114292" stop-color="#13F7FF"/>
<stop offset="0.654288" stop-color="#0CABB1"/>
</radialGradient>
<radialGradient id="paint9_radial_243_3320" cx="0" cy="0" r="1" gradientUnits="userSpaceOnUse" gradientTransform="translate(16.8 14.2) rotate(95.6062) scale(32.7567 91.3935)">
<stop offset="0.114292" stop-color="#13F7FF"/>
<stop offset="0.654288" stop-color="#0CABB1"/>
</radialGradient>
<radialGradient id="paint10_radial_243_3320" cx="0" cy="0" r="1" gradientUnits="userSpaceOnUse" gradientTransform="translate(16.8 14.2) rotate(95.6062) scale(32.7567 91.3935)">
<stop offset="0.114292" stop-color="#13F7FF"/>
<stop offset="0.654288" stop-color="#0CABB1"/>
</radialGradient>
<radialGradient id="paint11_radial_243_3320" cx="0" cy="0" r="1" gradientUnits="userSpaceOnUse" gradientTransform="translate(16.8 14.2) rotate(95.6062) scale(32.7567 91.3935)">
<stop offset="0.114292" stop-color="#13F7FF"/>
<stop offset="0.654288" stop-color="#0CABB1"/>
</radialGradient>
<radialGradient id="paint12_radial_243_3320" cx="0" cy="0" r="1" gradientUnits="userSpaceOnUse" gradientTransform="translate(16.8 14.2) rotate(95.6062) scale(32.7567 91.3935)">
<stop offset="0.114292" stop-color="#13F7FF"/>
<stop offset="0.654288" stop-color="#0CABB1"/>
</radialGradient>
<radialGradient id="paint13_radial_243_3320" cx="0" cy="0" r="1" gradientUnits="userSpaceOnUse" gradientTransform="translate(16.8 14.2) rotate(95.6062) scale(32.7567 91.3935)">
<stop offset="0.114292" stop-color="#13F7FF"/>
<stop offset="0.654288" stop-color="#0CABB1"/>
</radialGradient>
<radialGradient id="paint14_radial_243_3320" cx="0" cy="0" r="1" gradientUnits="userSpaceOnUse" gradientTransform="translate(16.8 14.2) rotate(95.6062) scale(32.7567 91.3935)">
<stop offset="0.114292" stop-color="#13F7FF"/>
<stop offset="0.654288" stop-color="#0CABB1"/>
</radialGradient>
<radialGradient id="paint15_radial_243_3320" cx="0" cy="0" r="1" gradientUnits="userSpaceOnUse" gradientTransform="translate(16.8 14.2) rotate(95.6062) scale(32.7567 91.3935)">
<stop offset="0.114292" stop-color="#13F7FF"/>
<stop offset="0.654288" stop-color="#0CABB1"/>
</radialGradient>
<radialGradient id="paint16_radial_243_3320" cx="0" cy="0" r="1" gradientUnits="userSpaceOnUse" gradientTransform="translate(16.8 14.2) rotate(95.6062) scale(32.7567 91.3935)">
<stop offset="0.114292" stop-color="#13F7FF"/>
<stop offset="0.654288" stop-color="#0CABB1"/>
</radialGradient>
<radialGradient id="paint17_radial_243_3320" cx="0" cy="0" r="1" gradientUnits="userSpaceOnUse" gradientTransform="translate(16.8 14.2) rotate(95.6062) scale(32.7567 91.3935)">
<stop offset="0.114292" stop-color="#13F7FF"/>
<stop offset="0.654288" stop-color="#0CABB1"/>
</radialGradient>
<radialGradient id="paint18_radial_243_3320" cx="0" cy="0" r="1" gradientUnits="userSpaceOnUse" gradientTransform="translate(16.8 14.2) rotate(95.6062) scale(32.7567 91.3935)">
<stop offset="0.114292" stop-color="#13F7FF"/>
<stop offset="0.654288" stop-color="#0CABB1"/>
</radialGradient>
<radialGradient id="paint19_radial_243_3320" cx="0" cy="0" r="1" gradientUnits="userSpaceOnUse" gradientTransform="translate(16.8 14.2) rotate(95.6062) scale(32.7567 91.3935)">
<stop offset="0.114292" stop-color="#13F7FF"/>
<stop offset="0.654288" stop-color="#0CABB1"/>
</radialGradient>
<radialGradient id="paint20_radial_243_3320" cx="0" cy="0" r="1" gradientUnits="userSpaceOnUse" gradientTransform="translate(16.8 14.2) rotate(95.6062) scale(32.7567 91.3935)">
<stop offset="0.114292" stop-color="#13F7FF"/>
<stop offset="0.654288" stop-color="#0CABB1"/>
</radialGradient>
<radialGradient id="paint21_radial_243_3320" cx="0" cy="0" r="1" gradientUnits="userSpaceOnUse" gradientTransform="translate(16.8 14.2) rotate(95.6062) scale(32.7567 91.3935)">
<stop offset="0.114292" stop-color="#13F7FF"/>
<stop offset="0.654288" stop-color="#0CABB1"/>
</radialGradient>
<radialGradient id="paint22_radial_243_3320" cx="0" cy="0" r="1" gradientUnits="userSpaceOnUse" gradientTransform="translate(16.8 14.2) rotate(95.6062) scale(32.7567 91.3935)">
<stop offset="0.114292" stop-color="#13F7FF"/>
<stop offset="0.654288" stop-color="#0CABB1"/>
</radialGradient>
<radialGradient id="paint23_radial_243_3320" cx="0" cy="0" r="1" gradientUnits="userSpaceOnUse" gradientTransform="translate(16.8 14.2) rotate(95.6062) scale(32.7567 91.3935)">
<stop offset="0.114292" stop-color="#13F7FF"/>
<stop offset="0.654288" stop-color="#0CABB1"/>
</radialGradient>
<radialGradient id="paint24_radial_243_3320" cx="0" cy="0" r="1" gradientUnits="userSpaceOnUse" gradientTransform="translate(16.8 14.2) rotate(95.6062) scale(32.7567 91.3935)">
<stop offset="0.114292" stop-color="#13F7FF"/>
<stop offset="0.654288" stop-color="#0CABB1"/>
</radialGradient>
<radialGradient id="paint25_radial_243_3320" cx="0" cy="0" r="1" gradientUnits="userSpaceOnUse" gradientTransform="translate(16.8 14.2) rotate(95.6062) scale(32.7567 91.3935)">
<stop offset="0.114292" stop-color="#13F7FF"/>
<stop offset="0.654288" stop-color="#0CABB1"/>
</radialGradient>
<radialGradient id="paint26_radial_243_3320" cx="0" cy="0" r="1" gradientUnits="userSpaceOnUse" gradientTransform="translate(16.8 14.2) rotate(95.6062) scale(32.7567 91.3935)">
<stop offset="0.114292" stop-color="#13F7FF"/>
<stop offset="0.654288" stop-color="#0CABB1"/>
</radialGradient>
<radialGradient id="paint27_radial_243_3320" cx="0" cy="0" r="1" gradientUnits="userSpaceOnUse" gradientTransform="translate(16.8 14.2) rotate(95.6062) scale(32.7567 91.3935)">
<stop offset="0.114292" stop-color="#13F7FF"/>
<stop offset="0.654288" stop-color="#0CABB1"/>
</radialGradient>
<radialGradient id="paint28_radial_243_3320" cx="0" cy="0" r="1" gradientUnits="userSpaceOnUse" gradientTransform="translate(16.8 14.2) rotate(95.6062) scale(32.7567 91.3935)">
<stop offset="0.114292" stop-color="#13F7FF"/>
<stop offset="0.654288" stop-color="#0CABB1"/>
</radialGradient>
<radialGradient id="paint29_radial_243_3320" cx="0" cy="0" r="1" gradientUnits="userSpaceOnUse" gradientTransform="translate(16.8 14.2) rotate(95.6062) scale(32.7567 91.3935)">
<stop offset="0.114292" stop-color="#13F7FF"/>
<stop offset="0.654288" stop-color="#0CABB1"/>
</radialGradient>
<radialGradient id="paint30_radial_243_3320" cx="0" cy="0" r="1" gradientUnits="userSpaceOnUse" gradientTransform="translate(16.8 14.2) rotate(95.6062) scale(32.7567 91.3935)">
<stop offset="0.114292" stop-color="#13F7FF"/>
<stop offset="0.654288" stop-color="#0CABB1"/>
</radialGradient>
<radialGradient id="paint31_radial_243_3320" cx="0" cy="0" r="1" gradientUnits="userSpaceOnUse" gradientTransform="translate(16.8 14.2) rotate(95.6062) scale(32.7567 91.3935)">
<stop offset="0.114292" stop-color="#13F7FF"/>
<stop offset="0.654288" stop-color="#0CABB1"/>
</radialGradient>
<radialGradient id="paint32_radial_243_3320" cx="0" cy="0" r="1" gradientUnits="userSpaceOnUse" gradientTransform="translate(16.8 14.2) rotate(95.6062) scale(32.7567 91.3935)">
<stop offset="0.114292" stop-color="#13F7FF"/>
<stop offset="0.654288" stop-color="#0CABB1"/>
</radialGradient>
<radialGradient id="paint33_radial_243_3320" cx="0" cy="0" r="1" gradientUnits="userSpaceOnUse" gradientTransform="translate(16.8 14.2) rotate(95.6062) scale(32.7567 91.3935)">
<stop offset="0.114292" stop-color="#13F7FF"/>
<stop offset="0.654288" stop-color="#0CABB1"/>
</radialGradient>
<radialGradient id="paint34_radial_243_3320" cx="0" cy="0" r="1" gradientUnits="userSpaceOnUse" gradientTransform="translate(16.8 14.2) rotate(95.6062) scale(32.7567 91.3935)">
<stop offset="0.114292" stop-color="#13F7FF"/>
<stop offset="0.654288" stop-color="#0CABB1"/>
</radialGradient>
<radialGradient id="paint35_radial_243_3320" cx="0" cy="0" r="1" gradientUnits="userSpaceOnUse" gradientTransform="translate(16.8 14.2) rotate(95.6062) scale(32.7567 91.3935)">
<stop offset="0.114292" stop-color="#13F7FF"/>
<stop offset="0.654288" stop-color="#0CABB1"/>
</radialGradient>
<radialGradient id="paint36_radial_243_3320" cx="0" cy="0" r="1" gradientUnits="userSpaceOnUse" gradientTransform="translate(16.8 14.2) rotate(95.6062) scale(32.7567 91.3935)">
<stop offset="0.114292" stop-color="#13F7FF"/>
<stop offset="0.654288" stop-color="#0CABB1"/>
</radialGradient>
<radialGradient id="paint37_radial_243_3320" cx="0" cy="0" r="1" gradientUnits="userSpaceOnUse" gradientTransform="translate(16.8 14.2) rotate(95.6062) scale(32.7567 91.3935)">
<stop offset="0.114292" stop-color="#13F7FF"/>
<stop offset="0.654288" stop-color="#0CABB1"/>
</radialGradient>
<radialGradient id="paint38_radial_243_3320" cx="0" cy="0" r="1" gradientUnits="userSpaceOnUse" gradientTransform="translate(16.8 14.2) rotate(95.6062) scale(32.7567 91.3935)">
<stop offset="0.114292" stop-color="#13F7FF"/>
<stop offset="0.654288" stop-color="#0CABB1"/>
</radialGradient>
<radialGradient id="paint39_radial_243_3320" cx="0" cy="0" r="1" gradientUnits="userSpaceOnUse" gradientTransform="translate(16.8 14.2) rotate(95.6062) scale(32.7567 91.3935)">
<stop offset="0.114292" stop-color="#13F7FF"/>
<stop offset="0.654288" stop-color="#0CABB1"/>
</radialGradient>
<radialGradient id="paint40_radial_243_3320" cx="0" cy="0" r="1" gradientUnits="userSpaceOnUse" gradientTransform="translate(16.8 14.2) rotate(95.6062) scale(32.7567 91.3935)">
<stop offset="0.114292" stop-color="#13F7FF"/>
<stop offset="0.654288" stop-color="#0CABB1"/>
</radialGradient>
<radialGradient id="paint41_radial_243_3320" cx="0" cy="0" r="1" gradientUnits="userSpaceOnUse" gradientTransform="translate(16.8 14.2) rotate(95.6062) scale(32.7567 91.3935)">
<stop offset="0.114292" stop-color="#13F7FF"/>
<stop offset="0.654288" stop-color="#0CABB1"/>
</radialGradient>
<radialGradient id="paint42_radial_243_3320" cx="0" cy="0" r="1" gradientUnits="userSpaceOnUse" gradientTransform="translate(16.8 14.2) rotate(95.6062) scale(32.7567 91.3935)">
<stop offset="0.114292" stop-color="#13F7FF"/>
<stop offset="0.654288" stop-color="#0CABB1"/>
</radialGradient>
<radialGradient id="paint43_radial_243_3320" cx="0" cy="0" r="1" gradientUnits="userSpaceOnUse" gradientTransform="translate(16.8 14.2) rotate(95.6062) scale(32.7567 91.3935)">
<stop offset="0.114292" stop-color="#13F7FF"/>
<stop offset="0.654288" stop-color="#0CABB1"/>
</radialGradient>
<radialGradient id="paint44_radial_243_3320" cx="0" cy="0" r="1" gradientUnits="userSpaceOnUse" gradientTransform="translate(16.8 14.2) rotate(95.6062) scale(32.7567 91.3935)">
<stop offset="0.114292" stop-color="#13F7FF"/>
<stop offset="0.654288" stop-color="#0CABB1"/>
</radialGradient>
<radialGradient id="paint45_radial_243_3320" cx="0" cy="0" r="1" gradientUnits="userSpaceOnUse" gradientTransform="translate(16.8 14.2) rotate(95.6062) scale(32.7567 91.3935)">
<stop offset="0.114292" stop-color="#13F7FF"/>
<stop offset="0.654288" stop-color="#0CABB1"/>
</radialGradient>
<radialGradient id="paint46_radial_243_3320" cx="0" cy="0" r="1" gradientUnits="userSpaceOnUse" gradientTransform="translate(16.8 14.2) rotate(95.6062) scale(32.7567 91.3935)">
<stop offset="0.114292" stop-color="#13F7FF"/>
<stop offset="0.654288" stop-color="#0CABB1"/>
</radialGradient>
<radialGradient id="paint47_radial_243_3320" cx="0" cy="0" r="1" gradientUnits="userSpaceOnUse" gradientTransform="translate(16.8 14.2) rotate(95.6062) scale(32.7567 91.3935)">
<stop offset="0.114292" stop-color="#13F7FF"/>
<stop offset="0.654288" stop-color="#0CABB1"/>
</radialGradient>
<radialGradient id="paint48_radial_243_3320" cx="0" cy="0" r="1" gradientUnits="userSpaceOnUse" gradientTransform="translate(16.8 14.2) rotate(95.6062) scale(32.7567 91.3935)">
<stop offset="0.114292" stop-color="#13F7FF"/>
<stop offset="0.654288" stop-color="#0CABB1"/>
</radialGradient>
<radialGradient id="paint49_radial_243_3320" cx="0" cy="0" r="1" gradientUnits="userSpaceOnUse" gradientTransform="translate(16.8 14.2) rotate(95.6062) scale(32.7567 91.3935)">
<stop offset="0.114292" stop-color="#13F7FF"/>
<stop offset="0.654288" stop-color="#0CABB1"/>
</radialGradient>
<radialGradient id="paint50_radial_243_3320" cx="0" cy="0" r="1" gradientUnits="userSpaceOnUse" gradientTransform="translate(16.8 14.2) rotate(95.6062) scale(32.7567 91.3935)">
<stop offset="0.114292" stop-color="#13F7FF"/>
<stop offset="0.654288" stop-color="#0CABB1"/>
</radialGradient>
<radialGradient id="paint51_radial_243_3320" cx="0" cy="0" r="1" gradientUnits="userSpaceOnUse" gradientTransform="translate(16.8 14.2) rotate(95.6062) scale(32.7567 91.3935)">
<stop offset="0.114292" stop-color="#13F7FF"/>
<stop offset="0.654288" stop-color="#0CABB1"/>
</radialGradient>
<radialGradient id="paint52_radial_243_3320" cx="0" cy="0" r="1" gradientUnits="userSpaceOnUse" gradientTransform="translate(16.8 14.2) rotate(95.6062) scale(32.7567 91.3935)">
<stop offset="0.114292" stop-color="#13F7FF"/>
<stop offset="0.654288" stop-color="#0CABB1"/>
</radialGradient>
<radialGradient id="paint53_radial_243_3320" cx="0" cy="0" r="1" gradientUnits="userSpaceOnUse" gradientTransform="translate(16.8 14.2) rotate(95.6062) scale(32.7567 91.3935)">
<stop offset="0.114292" stop-color="#13F7FF"/>
<stop offset="0.654288" stop-color="#0CABB1"/>
</radialGradient>
<radialGradient id="paint54_radial_243_3320" cx="0" cy="0" r="1" gradientUnits="userSpaceOnUse" gradientTransform="translate(16.8 14.2) rotate(95.6062) scale(32.7567 91.3935)">
<stop offset="0.114292" stop-color="#13F7FF"/>
<stop offset="0.654288" stop-color="#0CABB1"/>
</radialGradient>
<radialGradient id="paint55_radial_243_3320" cx="0" cy="0" r="1" gradientUnits="userSpaceOnUse" gradientTransform="translate(16.8 14.2) rotate(95.6062) scale(32.7567 91.3935)">
<stop offset="0.114292" stop-color="#13F7FF"/>
<stop offset="0.654288" stop-color="#0CABB1"/>
</radialGradient>
<radialGradient id="paint56_radial_243_3320" cx="0" cy="0" r="1" gradientUnits="userSpaceOnUse" gradientTransform="translate(16.8 14.2) rotate(95.6062) scale(32.7567 91.3935)">
<stop offset="0.114292" stop-color="#13F7FF"/>
<stop offset="0.654288" stop-color="#0CABB1"/>
</radialGradient>
<radialGradient id="paint57_radial_243_3320" cx="0" cy="0" r="1" gradientUnits="userSpaceOnUse" gradientTransform="translate(16.8 14.2) rotate(95.6062) scale(32.7567 91.3935)">
<stop offset="0.114292" stop-color="#13F7FF"/>
<stop offset="0.654288" stop-color="#0CABB1"/>
</radialGradient>
<radialGradient id="paint58_radial_243_3320" cx="0" cy="0" r="1" gradientUnits="userSpaceOnUse" gradientTransform="translate(16.8 14.2) rotate(95.6062) scale(32.7567 91.3935)">
<stop offset="0.114292" stop-color="#13F7FF"/>
<stop offset="0.654288" stop-color="#0CABB1"/>
</radialGradient>
</defs>
</svg>
